<svg width="128" height="18" viewBox="0 0 128 18" fill="none" xmlns="http://www.w3.org/2000/svg">
<path d="M19.6011 0.0341797V3.51358H33.3207V0.0341797H19.6011Z" fill="#2F3435"/>
<path d="M24.6714 5.68069V17.9873H28.2714V4.13989L24.6714 5.68069Z" fill="#2F3435"/>
<path d="M34.811 0.0341797V3.51358H48.5306V0.0341797H34.811Z" fill="#2F3435"/>
<path d="M39.8813 5.68069V17.9873H43.4813V4.13989L39.8813 5.68069Z" fill="#2F3435"/>
<path d="M70.728 11.4155C70.728 7.68595 73.6728 4.82935 77.4024 4.82935C81.1626 4.82935 84.1002 7.70935 84.1002 11.4155C84.1002 15.1217 81.1554 17.9999 77.3988 17.9999C73.6422 17.9999 70.728 15.1199 70.728 11.4155ZM80.7846 11.4155C80.7846 9.45355 79.323 8.01354 77.4024 8.01354C75.4818 8.01354 74.022 9.45355 74.022 11.4155C74.022 13.3775 75.4836 14.8175 77.4024 14.8175C79.3212 14.8175 80.7846 13.3559 80.7846 11.4155Z" fill="#2F3435"/>
<path d="M95.2315 5.04004H98.5021V17.7732H95.7589L95.4979 16.164C94.4179 17.3844 93.2299 17.9946 91.6351 17.9946C88.3789 18 86.3989 15.93 86.3989 12.5514V5.04004H89.6389V11.7576C89.6389 13.806 90.5785 14.8518 92.3245 14.8518C94.2667 14.8518 95.2261 13.545 95.2261 11.1456L95.2315 5.04004Z" fill="#2F3435"/>
<path d="M110.962 0.0341797H114.24V17.7822H111.464L111.225 16.2774C110.716 16.8187 110.103 17.2507 109.422 17.5469C108.741 17.8431 108.007 17.9972 107.265 18C103.796 18 100.954 15.12 100.954 11.4156C100.954 7.71118 103.792 4.83118 107.265 4.83118C108.654 4.83116 109.986 5.37976 110.973 6.35758L110.962 0.0341797ZM111.007 11.4156C111.007 9.45358 109.543 8.01358 107.625 8.01358C105.706 8.01358 104.244 9.45358 104.244 11.4156C104.244 13.3776 105.704 14.8176 107.625 14.8176C108.073 14.8257 108.518 14.7431 108.933 14.5748C109.348 14.4065 109.725 14.1558 110.041 13.838C110.357 13.5202 110.606 13.1418 110.772 12.7255C110.938 12.3092 111.018 11.8636 111.007 11.4156Z" fill="#2F3435"/>
<path d="M116.79 16.6265L118.187 14.0759C119.267 14.7077 120.718 15.1235 121.852 15.1235C123.27 15.1235 124.012 14.7527 124.012 14.0111C124.012 13.3577 123.401 12.9635 121.808 12.6809C118.646 12.0905 117.272 10.8683 117.272 8.66695C117.272 6.37735 119.278 4.82935 122.312 4.82935C124.102 4.82935 125.41 5.13535 126.917 5.94175L125.477 8.55895C124.251 7.91995 123.443 7.70935 122.309 7.73995C121.175 7.77055 120.52 8.08735 120.52 8.67955C120.52 9.33295 121.06 9.65875 122.768 10.0079C125.866 10.6631 127.268 11.9051 127.268 14.0201C127.259 16.4753 125.167 17.9999 121.859 17.9999C119.974 17.9999 118.12 17.4977 116.79 16.6265Z" fill="#2F3435"/>
<path d="M68.8704 14.8212C68.5961 14.9945 68.2803 15.0909 67.956 15.1002C67.1694 15.1002 66.876 14.6214 66.876 13.6242L66.903 0.0341797H63.636V13.7484C63.636 16.4952 64.9446 18 67.3872 18C68.4672 18 69.504 17.7822 70.2456 17.2152L70.2168 17.154C69.6552 16.4472 69.2015 15.661 68.8704 14.8212Z" fill="#2F3435"/>
<path d="M16.8921 13.3506C15.8516 15.2174 14.1842 16.6559 12.1851 17.4114C12.7715 16.3454 13.1387 15.1727 13.2651 13.9626C13.3664 13.9767 13.4687 13.9827 13.5711 13.9806C14.7081 13.9839 15.8353 13.7701 16.8921 13.3506Z" fill="url(#paint0_linear_18626_28999)"/>
<path d="M5.70866 0.628296C5.11366 1.67253 4.74565 2.83055 4.62866 4.0267C4.52144 4.01083 4.41298 4.00481 4.30466 4.0087C3.22583 4.0071 2.15581 4.20293 1.14746 4.5865C2.1587 2.7747 3.77249 1.37425 5.70866 0.628296Z" fill="url(#paint1_linear_18626_28999)"/>
<path d="M13.2722 13.9626C13.1459 15.1727 12.7787 16.3453 12.1922 17.4114C10.4638 18.067 8.57552 18.1745 6.78391 17.7194C4.99229 17.2642 3.38429 16.2684 2.17847 14.8673C0.972651 13.4662 0.227502 11.7278 0.0443112 9.88839C-0.13888 8.04896 0.248774 6.19774 1.15458 4.58635C2.16531 4.20236 3.23777 4.00653 4.31898 4.00855C4.42729 4.00557 4.53566 4.01159 4.64298 4.02655C4.60819 4.34214 4.59137 4.65946 4.59258 4.97695C4.59486 7.30752 5.50112 9.54634 7.12064 11.2223C8.74016 12.8982 10.9467 13.8805 13.2758 13.9626H13.2722Z" fill="url(#paint2_linear_18626_28999)"/>
<path d="M18.0134 9C18.0173 10.5267 17.6314 12.0292 16.892 13.365C15.8375 13.7836 14.7128 13.9974 13.5782 13.995C13.4759 13.9971 13.3736 13.9911 13.2722 13.977C13.3061 13.6607 13.3229 13.3429 13.3226 13.0248C13.324 10.6917 12.4194 8.44929 10.7995 6.77028C9.17963 5.09127 6.97102 4.10692 4.6394 4.0248C4.7567 2.82928 5.1247 1.67192 5.7194 0.6282C6.76296 0.213026 7.87589 -0.000152492 8.999 8.18412e-08C11.386 8.18412e-08 13.6751 0.948212 15.363 2.63604C17.0508 4.32387 17.999 6.61305 17.999 9H18.0134Z" fill="url(#paint3_linear_18626_28999)"/>
<path d="M50.219 11.4066C50.219 7.68236 53.1602 4.82936 56.9924 4.82936C57.8879 4.82143 58.7757 4.99556 59.6018 5.34119C60.428 5.68681 61.1753 6.19672 61.7984 6.83996L59.489 9.12056C59.1705 8.77267 58.7835 8.49442 58.3523 8.30329C57.9211 8.11217 57.455 8.0123 56.9834 8.00996C55.0034 8.00996 53.4986 9.44996 53.4986 11.4066C53.4986 13.3632 55.0016 14.805 56.9834 14.805C57.457 14.8016 57.9249 14.7013 58.3583 14.5103C58.7917 14.3193 59.1814 14.0416 59.5034 13.6944L61.8128 15.9804C61.1833 16.6231 60.4303 17.1319 59.5992 17.4762C58.768 17.8205 57.8758 17.9931 56.9762 17.9838C53.1512 17.9838 50.219 15.1308 50.219 11.4066Z" fill="#2F3435"/>
<defs>
<linearGradient id="paint0_linear_18626_28999" x1="14.1471" y1="13.752" x2="14.8707" y2="16.7652" gradientUnits="userSpaceOnUse">
<stop offset="0.21" stop-color="#1580EE"/>
<stop offset="1" stop-color="#25D9D3"/>
</linearGradient>
<linearGradient id="paint1_linear_18626_28999" x1="3.82046" y1="4.2211" x2="3.10766" y2="1.2529" gradientUnits="userSpaceOnUse">
<stop offset="0.24" stop-color="#1580EE"/>
<stop offset="1" stop-color="#25D9D3"/>
</linearGradient>
<linearGradient id="paint2_linear_18626_28999" x1="0.776579" y1="4.49455" x2="11.0312" y2="19.2078" gradientUnits="userSpaceOnUse">
<stop offset="0.04" stop-color="#15009D"/>
<stop offset="0.06" stop-color="#150EA6"/>
<stop offset="0.17" stop-color="#153FC5"/>
<stop offset="0.26" stop-color="#1562DB"/>
<stop offset="0.34" stop-color="#1578E9"/>
<stop offset="0.39" stop-color="#1580EE"/>
<stop offset="1" stop-color="#25D9D3"/>
</linearGradient>
<linearGradient id="paint3_linear_18626_28999" x1="7.2242" y1="-0.783" x2="17.4824" y2="13.932" gradientUnits="userSpaceOnUse">
<stop stop-color="#25D9D3"/>
<stop offset="0.66" stop-color="#1580EE"/>
<stop offset="0.71" stop-color="#1578E9"/>
<stop offset="0.78" stop-color="#1563DC"/>
<stop offset="0.87" stop-color="#1540C6"/>
<stop offset="0.97" stop-color="#1510A7"/>
<stop offset="1" stop-color="#15009D"/>
</linearGradient>
</defs>
</svg>
