<svg width="227" height="32" viewBox="0 0 227 32" fill="none" xmlns="http://www.w3.org/2000/svg">
<path d="M34.8462 0.0608063V6.24641H59.2366V0.0608063H34.8462Z" fill="white"/>
<path d="M43.8606 10.0992V31.9776H50.2606V7.36L43.8606 10.0992Z" fill="white"/>
<path d="M61.8862 0.0608063V6.24641H86.2766V0.0608063H61.8862Z" fill="white"/>
<path d="M70.9006 10.0992V31.9776H77.3006V7.36L70.9006 10.0992Z" fill="white"/>
<path d="M125.739 20.2944C125.739 13.664 130.974 8.5856 137.605 8.5856C144.289 8.5856 149.512 13.7056 149.512 20.2944C149.512 26.8832 144.277 32 137.598 32C130.92 32 125.739 26.88 125.739 20.2944ZM143.617 20.2944C143.617 16.8064 141.019 14.2464 137.605 14.2464C134.19 14.2464 131.595 16.8064 131.595 20.2944C131.595 23.7824 134.193 26.3424 137.605 26.3424C141.016 26.3424 143.617 23.744 143.617 20.2944Z" fill="white"/>
<path d="M169.301 8.96001H175.115V31.5968H170.238L169.774 28.736C167.854 30.9056 165.742 31.9904 162.907 31.9904C157.118 32 153.598 28.32 153.598 22.3136V8.96001H159.358V20.9024C159.358 24.544 161.029 26.4032 164.133 26.4032C167.585 26.4032 169.291 24.08 169.291 19.8144L169.301 8.96001Z" fill="white"/>
<path d="M197.265 0.0608063H203.093V31.6128H198.158L197.733 28.9376C196.829 29.9 195.739 30.6679 194.528 31.1945C193.318 31.721 192.013 31.9951 190.693 32C184.526 32 179.473 26.88 179.473 20.2944C179.473 13.7088 184.52 8.58881 190.693 8.58881C193.162 8.58876 195.531 9.56406 197.285 11.3024L197.265 0.0608063ZM197.345 20.2944C197.345 16.8064 194.744 14.2464 191.333 14.2464C187.921 14.2464 185.323 16.8064 185.323 20.2944C185.323 23.7824 187.918 26.3424 191.333 26.3424C192.129 26.3569 192.92 26.2101 193.659 25.9108C194.397 25.6115 195.067 25.166 195.629 24.601C196.191 24.036 196.632 23.3632 196.927 22.6231C197.222 21.883 197.365 21.0909 197.345 20.2944Z" fill="white"/>
<path d="M207.627 29.5584L210.11 25.024C212.03 26.1472 214.609 26.8864 216.625 26.8864C219.147 26.8864 220.465 26.2272 220.465 24.9088C220.465 23.7472 219.381 23.0464 216.549 22.544C210.926 21.4944 208.485 19.3216 208.485 15.408C208.485 11.3376 212.049 8.5856 217.445 8.5856C220.625 8.5856 222.952 9.1296 225.63 10.5632L223.07 15.216C220.891 14.08 219.454 13.7056 217.438 13.76C215.422 13.8144 214.257 14.3776 214.257 15.4304C214.257 16.592 215.217 17.1712 218.254 17.792C223.761 18.9568 226.254 21.1648 226.254 24.9248C226.238 29.2896 222.52 32 216.638 32C213.288 32 209.992 31.1072 207.627 29.5584Z" fill="white"/>
<path d="M122.437 26.3488C121.949 26.6569 121.388 26.8282 120.811 26.8448C119.413 26.8448 118.891 25.9936 118.891 24.2208L118.939 0.0608063H113.131V24.4416C113.131 29.3248 115.457 32 119.8 32C121.72 32 123.563 31.6128 124.881 30.6048L124.83 30.496C123.832 29.2394 123.025 27.8419 122.437 26.3488Z" fill="white"/>
<path d="M30.0302 23.7344C28.1805 27.0532 25.2163 29.6105 21.6622 30.9536C22.7048 29.0584 23.3576 26.9738 23.5822 24.8224C23.7624 24.8475 23.9443 24.8582 24.1262 24.8544C26.1475 24.8604 28.1514 24.4802 30.0302 23.7344Z" fill="url(#paint0_linear_6401_3038)"/>
<path d="M10.1486 1.11681C9.09082 2.97323 8.43658 5.03192 8.22859 7.15841C8.03797 7.13021 7.84517 7.1195 7.65259 7.1264C5.73467 7.12358 3.83241 7.47171 2.03979 8.15361C3.83754 4.93264 6.70652 2.44295 10.1486 1.11681Z" fill="url(#paint1_linear_6401_3038)"/>
<path d="M23.595 24.8224C23.3704 26.9738 22.7176 29.0584 21.675 30.9536C18.6024 32.1192 15.2454 32.3104 12.0603 31.5012C8.87519 30.692 6.01652 28.9217 3.87284 26.4309C1.72916 23.94 0.404448 20.8495 0.0787755 17.5794C-0.246897 14.3093 0.442264 11.0183 2.05258 8.1536C3.84943 7.47093 5.75603 7.1228 7.67819 7.12639C7.87074 7.12109 8.0634 7.1318 8.25419 7.1584C8.19235 7.71944 8.16243 8.28355 8.16458 8.84799C8.16865 12.9912 9.77977 16.9713 12.6589 19.9508C15.5381 22.9302 19.4607 24.6766 23.6014 24.8224H23.595Z" fill="url(#paint2_linear_6401_3038)"/>
<path d="M32.0238 16C32.0308 18.7142 31.3446 21.3853 30.0302 23.76C28.1555 24.5042 26.1561 24.8843 24.139 24.88C23.9571 24.8838 23.7752 24.8731 23.595 24.848C23.6552 24.2857 23.6852 23.7207 23.6846 23.1552C23.6872 19.0075 22.079 15.021 19.1992 12.036C16.3193 9.05114 12.3929 7.3012 8.2478 7.1552C8.45632 5.02983 9.11054 2.9723 10.1678 1.1168C12.023 0.378713 14.0016 -0.000271097 15.9982 1.45496e-07C20.2417 1.45496e-07 24.3113 1.68571 27.3119 4.68629C30.3125 7.68687 31.9982 11.7565 31.9982 16H32.0238Z" fill="url(#paint3_linear_6401_3038)"/>
<path d="M89.2782 20.2784C89.2782 13.6576 94.507 8.5856 101.32 8.5856C102.912 8.5715 104.49 8.88107 105.959 9.49552C107.428 10.11 108.756 11.0165 109.864 12.16L105.758 16.2144C105.192 15.5959 104.504 15.1013 103.737 14.7615C102.971 14.4217 102.142 14.2442 101.304 14.24C97.7838 14.24 95.1086 16.8 95.1086 20.2784C95.1086 23.7568 97.7806 26.32 101.304 26.32C102.146 26.314 102.978 26.1358 103.748 25.7962C104.518 25.4566 105.211 24.963 105.784 24.3456L109.889 28.4096C108.77 29.5523 107.432 30.4568 105.954 31.0689C104.476 31.6809 102.89 31.9879 101.291 31.9712C94.491 31.9712 89.2782 26.8992 89.2782 20.2784Z" fill="white"/>
<defs>
<linearGradient id="paint0_linear_6401_3038" x1="25.1502" y1="24.448" x2="26.4366" y2="29.8048" gradientUnits="userSpaceOnUse">
<stop offset="0.21" stop-color="#1580EE"/>
<stop offset="1" stop-color="#25D9D3"/>
</linearGradient>
<linearGradient id="paint1_linear_6401_3038" x1="6.79179" y1="7.50401" x2="5.52459" y2="2.22721" gradientUnits="userSpaceOnUse">
<stop offset="0.24" stop-color="#1580EE"/>
<stop offset="1" stop-color="#25D9D3"/>
</linearGradient>
<linearGradient id="paint2_linear_6401_3038" x1="1.38058" y1="7.99039" x2="19.611" y2="34.1472" gradientUnits="userSpaceOnUse">
<stop offset="0.04" stop-color="#15009D"/>
<stop offset="0.06" stop-color="#150EA6"/>
<stop offset="0.17" stop-color="#153FC5"/>
<stop offset="0.26" stop-color="#1562DB"/>
<stop offset="0.34" stop-color="#1578E9"/>
<stop offset="0.39" stop-color="#1580EE"/>
<stop offset="1" stop-color="#25D9D3"/>
</linearGradient>
<linearGradient id="paint3_linear_6401_3038" x1="12.843" y1="-1.392" x2="31.0798" y2="24.768" gradientUnits="userSpaceOnUse">
<stop stop-color="#25D9D3"/>
<stop offset="0.66" stop-color="#1580EE"/>
<stop offset="0.71" stop-color="#1578E9"/>
<stop offset="0.78" stop-color="#1563DC"/>
<stop offset="0.87" stop-color="#1540C6"/>
<stop offset="0.97" stop-color="#1510A7"/>
<stop offset="1" stop-color="#15009D"/>
</linearGradient>
</defs>
</svg>
